<svg id="Capa_1" data-name="Capa 1" xmlns="http://www.w3.org/2000/svg" viewBox="0 0 456.23 317.13"><defs><style>.cls-1{fill:#67c5de;}</style></defs><title>Logo</title><path d="M43.09,138.13V2.66H74.68V52.89H91.42V2.66H123V138.13H91.42V73.44H74.68v64.69Z"/><path d="M211.28,101.22c0,31-19,39.57-39.95,39.57s-40-8.56-40-39.57V39.57c0-31,19-39.57,40-39.57s39.95,8.56,39.95,39.57ZM163,108.45c0,5.52,1.72,10.65,8.38,10.65s8.37-5.13,8.37-10.65V32.34c0-5.51-1.72-10.65-8.37-10.65S163,26.83,163,32.34Z"/><path d="M244.76,138.13h-25.3V2.66h46.42L279.2,98.94h.38L292.9,2.66h45.47V138.13H309.83V22.45h-.38L291.19,138.13H263.41L245.14,22.45h-.38Z"/><path d="M346.16,138.13V2.66h65.45V23.21H377.75V52.89h32.72V73.44H377.75v44.14h33.86v20.55Z"/><path class="cls-1" d="M12.37,246.55v67.16H0V171H27.59c26.06,0,44,7.61,44,36.53,0,13.89-5.9,30.25-20.93,33.49v.38c16.55,4.19,18.84,16.93,19,34.82.38,6.85-.57,32,6.46,35.77v1.71H62.6c-5.33-12-5-36.34-5.71-46.81-1.33-19-15.6-20.35-31.78-20.35Zm0-11H34.06c4.18,0,25.11-1.52,25.11-27,0-20.92-9.51-26.44-28.92-26.44H12.37Z"/><path class="cls-1" d="M137.94,171l38.24,142.7H163.62L152.4,269.76H109L97.41,313.71h-12L123.67,171Zm11.79,87.71L130.9,186.61h-.38l-18.84,72.11Z"/><path class="cls-1" d="M271.88,265.38c.57,24.36-11.8,51.75-40.34,51.75-41.29,0-41.29-48.51-41.29-78.76,0-29.3,3.81-70.78,41.67-70.78,25.69,0,38.62,20.36,38.81,44.52H258.37c-1.14-16.93-7.61-33.49-26.83-33.49-30.06,0-28.92,43.38-28.92,62.6,0,21.88-1.14,64.88,30.25,64.88,21.31,0,26.07-23.21,26.64-40.72Z"/><path class="cls-1" d="M296.8,313.71V171h64.69v11H309.16v51.37h47.57v11H309.16v58.22h53.28v11Z"/><path class="cls-1" d="M419.7,235.89c20.93,8.75,36.53,15.22,36.53,41.1,0,24.54-16,40.14-40.91,40.14-26.06,0-39.76-18.45-39.19-43.76h12.18c-.19,17.89,7.23,32.73,26.82,32.73,17.32,0,28.73-11,28.73-28.73,0-21.5-15.6-24.93-32-31.39C392.68,238.37,379,229.8,379,207c0-23.21,13.89-39.38,37.1-39.38,22.27,0,36.92,15.41,36.34,37.86h-12c.76-15.79-8.56-26.83-24.55-26.83-16.17,0-24.54,12-24.54,27.59,0,14.08,4.57,19.6,17.32,25.12Z"/></svg>