<svg id="Capa_1" enable-background="new 0 0 512 512" height="512" viewBox="0 0 512 512" width="512" xmlns="http://www.w3.org/2000/svg"><g><path d="m395.081 164.56c-4.406 0-8.711-1.942-11.629-5.52l-49.997-61.294c-3.757-4.606-4.44-10.997-1.74-16.294 6.932-13.598 15.459-25.506 25.346-35.392 45.271-45.272 115.899-46.049 118.884-46.06h.055c3.978 0 7.793 1.58 10.606 4.394 2.827 2.826 4.408 6.664 4.394 10.661-.011 2.984-.789 73.614-46.06 118.885-11.896 11.896-26.636 21.77-43.812 29.344-1.952.861-4.011 1.276-6.047 1.276z" fill="#cecedd"/><path d="m116.919 164.56c-2.037 0-4.095-.415-6.047-1.276-17.176-7.574-31.917-17.447-43.812-29.344-45.271-45.271-46.049-115.901-46.06-118.885-.015-3.997 1.567-7.835 4.394-10.661 2.813-2.814 6.629-4.394 10.606-4.394h.055c2.984.011 73.613.788 118.885 46.061 9.887 9.886 18.414 21.794 25.346 35.392 2.7 5.297 2.017 11.688-1.74 16.294l-49.997 61.294c-2.918 3.575-7.224 5.519-11.63 5.519z" fill="#e2dff4"/><path d="m389.251 105.904c-21.945-27.901-54.892-43.904-90.39-43.904h-85.722c-35.499 0-68.445 16.003-90.391 43.904-21.946 27.902-29.736 63.69-21.372 98.189l49.624 204.699h210l49.624-204.698c8.363-34.499.573-70.287-21.373-98.19z" fill="#f4f4f6"/><path d="m298.861 62h-42.861v346.792h105l49.624-204.698c8.364-34.499.574-70.287-21.372-98.189s-54.893-43.905-90.391-43.905z" fill="#e2dff4"/><path d="m286 512h-60c-41.355 0-75-33.645-75-75v-30c0-5.017 2.507-9.7 6.682-12.482 32.378-21.578 65.464-32.518 98.336-32.518h.004c32.873.001 65.946 10.942 98.3 32.521 4.173 2.782 6.678 7.464 6.678 12.479v30c0 41.355-33.645 75-75 75z" fill="#0a789b"/><path d="m354.323 394.521c-32.354-21.578-65.427-32.52-98.3-32.521-.002 0-.002 0-.004 0-.006 0-.012 0-.018 0v150h30c41.355 0 75-33.645 75-75v-30c-.001-5.015-2.506-9.697-6.678-12.479z" fill="#08475e"/><circle cx="226" cy="437" fill="#08475e" r="15"/><g fill="#05303d"><circle cx="286" cy="437" r="15"/><path d="m311 247c0 8.284 6.716 15 15 15h70.586l7.273-30h-77.859c-8.284 0-15 6.716-15 15z"/><path d="m281 307c0 8.284 6.716 15 15 15h86.04l7.273-30h-93.313c-8.284 0-15 6.716-15 15z"/></g><path d="m201 247c0-8.284-6.716-15-15-15h-77.858l7.273 30h70.585c8.284 0 15-6.716 15-15z" fill="#08475e"/><path d="m231 307c0-8.284-6.716-15-15-15h-93.313l7.273 30h86.04c8.284 0 15-6.716 15-15z" fill="#08475e"/><path d="m256 162c-11.883 0-23.294-5.032-31.307-13.808-8.013-8.774-11.991-20.594-10.915-32.428l5.473-60.205c1.739-19.131 17.538-33.559 36.749-33.559s35.01 14.428 36.749 33.56l5.473 60.205c1.076 11.834-2.902 23.653-10.915 32.428s-19.424 13.807-31.307 13.807z" fill="#0a789b"/><path d="m287.307 148.192c8.013-8.774 11.991-20.594 10.915-32.428l-5.473-60.205c-1.739-19.131-17.538-33.559-36.749-33.559v140c11.883 0 23.294-5.032 31.307-13.808z" fill="#08475e"/><path d="m321 212c-8.284 0-15-6.716-15-15v-20c0-8.284 6.716-15 15-15s15 6.716 15 15v20c0 8.284-6.716 15-15 15z" fill="#05303d"/><path d="m191 212c-8.284 0-15-6.716-15-15v-20c0-8.284 6.716-15 15-15s15 6.716 15 15v20c0 8.284-6.716 15-15 15z" fill="#08475e"/></g></svg>