<?xml version="1.0" encoding="iso-8859-1"?>
<!-- Generator: Adobe Illustrator 19.0.0, SVG Export Plug-In . SVG Version: 6.00 Build 0)  -->
<svg version="1.1" id="Capa_1" xmlns="http://www.w3.org/2000/svg" xmlns:xlink="http://www.w3.org/1999/xlink" x="0px" y="0px"
	 viewBox="0 0 512 512" style="enable-background:new 0 0 512 512;" xml:space="preserve">
<path style="fill:#F1F1F6;" d="M511.269,206.57l-2.36,7.254l-87.34,268.552l-2.36,7.264C417.2,495.814,411.44,500,404.95,500h-297.9
	c-6.49,0-12.25-4.186-14.26-10.361l-2.36-7.264L3.091,213.823l-2.36-7.254c-2-6.175,0.2-12.939,5.45-16.756l6.19-4.496L241,19.349
	l6.18-4.486c5.26-3.817,12.38-3.817,17.64,0l6.18,4.486l228.629,165.969l6.19,4.496C511.069,193.631,513.269,200.395,511.269,206.57
	z"/>
<g>
	<path style="fill:#D4D6E1;" d="M505.819,189.814l-6.19-4.496L271,19.349l-6.18-4.486C262.19,12.954,259.095,12,256,12v488h148.95
		c6.49,0,12.25-4.186,14.26-10.361l2.36-7.264l87.34-268.552l2.36-7.254C513.269,200.395,511.069,193.631,505.819,189.814z"/>
	<path style="fill:#D4D6E1;" d="M505.819,189.814l-6.19-4.496c-0.132,0.043-228.516,74.19-228.629,74.227V19.349l-6.18-4.486
		c-5.26-3.817-12.38-3.817-17.64,0L241,19.349v240.196c-10.401-3.377-218.23-70.851-228.629-74.227l-6.19,4.496
		c-5.25,3.817-7.45,10.581-5.45,16.756l2.36,7.254c2.724,0.884,222.485,72.229,228.639,74.227
		c-0.09,0.124-131.52,180.875-141.3,194.325l2.36,7.264c2.01,6.174,7.77,10.36,14.26,10.36h7.64
		C129.786,479.242,251.751,311.519,256,305.675C268.226,322.488,391.053,491.396,397.31,500h7.64c6.49,0,12.25-4.186,14.26-10.361
		l2.36-7.264c-0.394-0.543-141.192-194.177-141.3-194.325c2.08-0.675,228.365-74.138,228.639-74.227l2.36-7.254
		C513.269,200.395,511.069,193.631,505.819,189.814z"/>
</g>
<path style="fill:#B5B8C6;" d="M505.819,189.814l-6.19-4.496c-0.133,0.043-228.516,74.19-228.629,74.227V19.349l-6.18-4.486
	C262.19,12.954,259.095,12,256,12v293.675C268.226,322.488,391.053,491.396,397.31,500h7.64c6.49,0,12.25-4.186,14.26-10.361
	l2.36-7.264c-0.394-0.543-141.192-194.177-141.3-194.325c2.08-0.675,228.365-74.138,228.639-74.227l2.36-7.254
	C513.269,200.395,511.069,193.631,505.819,189.814z"/>
<path style="fill:#FB3C33;" d="M361.408,240.908L268.03,115.626c-4.893-6.566-14.153-7.994-20.8-3.207L98.285,219.661
	c-7.427,5.345-8.37,16.058-1.974,22.617l105.466,108.148c1.269,1.302,2.764,2.361,4.412,3.128l131.405,61.122
	c9.666,4.497,20.934-2.282,21.321-13.047l5.453-151.231C364.491,246.991,363.447,243.643,361.408,240.908z"/>
<path style="fill:#D81D2F;" d="M361.408,240.908L268.03,115.626c-2.938-3.943-7.453-6.017-12.03-6.021v267.12l81.594,37.952
	c9.666,4.497,20.934-2.282,21.321-13.047l5.453-151.231C364.491,246.99,363.447,243.643,361.408,240.908z"/>
<g>
</g>
<g>
</g>
<g>
</g>
<g>
</g>
<g>
</g>
<g>
</g>
<g>
</g>
<g>
</g>
<g>
</g>
<g>
</g>
<g>
</g>
<g>
</g>
<g>
</g>
<g>
</g>
<g>
</g>
</svg>
