<svg id="Capa_1" data-name="Capa 1" xmlns="http://www.w3.org/2000/svg" viewBox="0 0 600 512.33"><defs><style>.cls-1{fill:#ff4a73;}.cls-2{fill:#5fcdff;}</style></defs><title>Indefinido</title><path class="cls-1" d="M415.36,301.79v57.93h-87V425h87v87h65.28V425h87V359.74h-87V301.8a152,152,0,1,0-65.28,0ZM448,66.71a86.71,86.71,0,1,1-86.71,86.71A86.71,86.71,0,0,1,448,66.71Zm0,0" transform="translate(0 0.33)"/><path class="cls-2" d="M184.64,209.88V90.48h52L152-.33,67.33,90.48h52v119.4a152,152,0,1,0,65.28,0ZM152,445a86.71,86.71,0,1,1,86.71-86.71A86.72,86.72,0,0,1,152,445Zm0,0" transform="translate(0 0.33)"/></svg>