<svg id="Capa_1" data-name="Capa 1" xmlns="http://www.w3.org/2000/svg" viewBox="0 0 528.1 510.66"><defs><style>.cls-1{fill:#67c5de;}</style></defs><title>Verificación</title><path class="cls-1" d="M252.48,510.33h-.13c-67.45,0-130.84-26.63-178.51-74.89S0,323.05,0,254.85A255.05,255.05,0,0,1,74.05,74.36C121.72,26.2,185.09-.33,252.48-.33h.11A248.7,248.7,0,0,1,355.27,21.78a21.66,21.66,0,0,1,10.78,28.48,21.23,21.23,0,0,1-28.17,10.92,206.61,206.61,0,0,0-85.27-18.36h-.13a207.25,207.25,0,0,0-148.27,62.06,212.07,212.07,0,0,0-61.56,150c-.07,117,94,212.23,209.71,212.3h.09a207.35,207.35,0,0,0,148.33-62.06,212.16,212.16,0,0,0,61.54-150V233.4a21.33,21.33,0,1,1,42.66,0v21.73c0,68.22-26.35,132.33-74.05,180.51s-111,74.69-178.45,74.69Z" transform="translate(0 0.33)"/><path class="cls-1" d="M252.48,323.46a21.07,21.07,0,0,1-15.07-6.32L168.05,247a21.75,21.75,0,0,1,0-30.51,21.17,21.17,0,0,1,30.18,0l54.25,54.87L491.68,29.5a21.19,21.19,0,0,1,30.18,0,21.77,21.77,0,0,1,0,30.51L267.56,317.14a21.08,21.08,0,0,1-15.08,6.32Z" transform="translate(0 0.33)"/></svg>