<svg id="Capa_1" data-name="Capa 1" xmlns="http://www.w3.org/2000/svg" viewBox="0 0 320 325.84"><defs><style>.cls-1{fill:#b2b2b2;}</style></defs><title>Distancia</title><path class="cls-1" d="M139.25,240.54a3.86,3.86,0,0,1,3.84-3.43h33.82a3.86,3.86,0,0,1,3.84,3.43l9.47,85.29H302.67a17.32,17.32,0,0,0,17.12-20L274.3,14.65A17.34,17.34,0,0,0,257.17,0h-90l2.79,46.82a3.93,3.93,0,0,1-1,2.88,3.89,3.89,0,0,1-2.82,1.21H153.91a3.85,3.85,0,0,1-3.85-4.09L152.86,0h-90A17.34,17.34,0,0,0,45.7,14.65L.21,305.83a17.35,17.35,0,0,0,17.12,20H129.77ZM149.52,85a3.86,3.86,0,0,1,3.85-3.53h13.26A3.85,3.85,0,0,1,170.47,85L180,199.47a3.86,3.86,0,0,1-3.85,4.17H143.83A3.87,3.87,0,0,1,141,202.4a3.81,3.81,0,0,1-1-2.93Zm0,0"/></svg>