<svg id="Capa_1" data-name="Capa 1" xmlns="http://www.w3.org/2000/svg" viewBox="0 0 268.12 159.8"><defs><style>.cls-1{fill:#67c5de;}</style></defs><title>Lento</title><path class="cls-1" d="M256.66,25.52a22.29,22.29,0,0,0-26.13,4l-8.63,8.63a316.81,316.81,0,0,0-44.51-23C140.86,0,110.54-3.84,87.29,3.91S43,31.06,24.66,61.6A240.68,240.68,0,0,0,4.18,104.86a3.46,3.46,0,0,0-.14.53H4L-.43,127.7A4.46,4.46,0,0,0,4,133a18.75,18.75,0,0,0,4.46-.69v5.15a22.33,22.33,0,0,0,22.3,22.31H57.47a4.46,4.46,0,0,0,4.46-4.47v-4.46a22.63,22.63,0,0,0-.48-4.64,321.22,321.22,0,0,0,48,3.73c4.07,0,8.23-.08,12.44-.28,31-1.41,57.31-8.14,78.34-20V133a22.32,22.32,0,0,0,22.3,22.3h26.76a4.45,4.45,0,0,0,4.46-4.46v-4.46a22.33,22.33,0,0,0-17.84-21.85V110.73a39.94,39.94,0,0,0-5.95-21c16.12-11,34.22-26.2,37.09-40.52,2.11-10.54-1.58-18.93-10.37-23.64Zm-90.94-5.34A292.22,292.22,0,0,1,194.61,33a147,147,0,0,1-13.17,13.13L161.18,29.28Zm8.7,31.74A145.82,145.82,0,0,1,133.3,74.08V46.58L155,35.74ZM111,9c15.09-.32,31.19,3.18,46.25,8.19l-5,9.94L128.64,38.94,111,31.88Zm13.38,37.86V76.91a174.65,174.65,0,0,1-21.94,4.77A207.59,207.59,0,0,1,72.55,84l6.66-36.63,27.09-7.74ZM90.11,12.37a64.43,64.43,0,0,1,12-2.71V31.54l-25.92,7.4L62.24,29c8.28-7.27,17.57-13.2,27.87-16.63ZM55.66,35.27,70.42,45.81l-6.91,38A250.45,250.45,0,0,1,25,79.47c7.16-13.92,17.42-30.58,30.67-44.2ZM20.91,87.75A256.66,256.66,0,0,0,71.27,92.9a215.76,215.76,0,0,0,32.52-2.4c40.58-6.2,73.84-24.09,98.94-53.19,5.89,3.22,10.57,6,13.56,7.85C200.83,68,181,85.24,157.19,96.52c-20.13,9.55-43.14,14.89-68.38,15.88a247.78,247.78,0,0,1-74.59-9c1.36-3.53,3.6-9,6.69-15.63ZM9.74,122.38,11.81,112c1.93.56,4.39,1.24,7.33,2a25.83,25.83,0,0,1-9.4,8.42Zm21,28.49a13.39,13.39,0,0,1-13.38-13.38v-9.28A37.92,37.92,0,0,0,28.4,116.08c2.85.59,5.94,1.18,9.25,1.74L35.23,132.3a4.46,4.46,0,0,0,4.4,5.19A13.37,13.37,0,0,1,53,150.87ZM56.6,136.4c-.38-.44-.78-.88-1.2-1.3a22.17,22.17,0,0,0-10.6-5.93l1.66-10a251.76,251.76,0,0,0,33.71,2.31q4.27,0,8.7-.16c26.5-1,50.72-6.6,72-16.67q6.48-3.06,12.59-6.69v3.85a17.86,17.86,0,0,0,17.84,17.84,9,9,0,0,1,5.34,1.78c-46.73,26.88-111.92,19.81-140,15ZM231.43,133a13.41,13.41,0,0,1,13.39,13.38H222.51A13.39,13.39,0,0,1,209.13,133v-4.46a17.84,17.84,0,0,0-17.84-17.84,8.93,8.93,0,0,1-8.92-8.92V92.26a152.47,152.47,0,0,0,15.91-12.65A31.22,31.22,0,0,1,227,110.73v17.84a4.46,4.46,0,0,0,4.46,4.46Zm26.85-85.62c-1.81,9.08-14.09,21.82-33.85,35.23a40,40,0,0,0-18.29-10.7A169,169,0,0,0,226,46.65l10.84-10.84a13.33,13.33,0,0,1,15.61-2.43c5.32,2.85,7.18,7.31,5.83,14Zm0,0" transform="translate(0.51)"/><path class="cls-1" d="M249.28,48.28a4.46,4.46,0,1,1-4.46-4.46,4.46,4.46,0,0,1,4.46,4.46Zm0,0" transform="translate(0.51)"/></svg>