<svg id="Capa_1" data-name="Capa 1" xmlns="http://www.w3.org/2000/svg" viewBox="0 0 392 331.67"><defs><style>.cls-1{fill:#b2b2b2;}</style></defs><title>Velocidad</title><path class="cls-1" d="M223.2,291.75a11.34,11.34,0,0,1-7.24-2.62c-.26-.22-.52-.45-.76-.69L19.73,93,8,104.7a27.27,27.27,0,0,0,0,38.57L128.54,263.82h-23a11.31,11.31,0,1,0,0,22.61h45.61l22.62,22.62H75.38a11.31,11.31,0,0,0,0,22.62H380.69A11.31,11.31,0,0,0,392,320.36V291.75Z"/><path class="cls-1" d="M227.88,269.14H392V256.49a59.27,59.27,0,0,0-59.2-59.2H304.27a10.68,10.68,0,0,1-1.4.54L247.56,214.7a11.48,11.48,0,0,1-3.3.49,11.31,11.31,0,0,1-3.3-22.13l42-12.81-9.1-9.09-53.55,16.32a11.16,11.16,0,0,1-3.3.5,11.31,11.31,0,0,1-3.29-22.13l56.12-17.11a50.93,50.93,0,0,0-13.86-47L243.92,89.68a42.09,42.09,0,0,0-30-12.42,19.62,19.62,0,0,1-14-5.79l-7.54-7.54a19.66,19.66,0,0,1-5.8-14,42.16,42.16,0,0,0-12.41-30L157.56,3.31A11.32,11.32,0,0,0,147,.29L105.17,10a11.33,11.33,0,0,0-5.46,3l-64,64L227.88,269.14Z"/></svg>