<svg id="Capa_1" data-name="Capa 1" xmlns="http://www.w3.org/2000/svg" viewBox="0 0 267.59 146.09"><defs><style>.cls-1{fill:#67c5de;}</style></defs><title>Rápido</title><path class="cls-1" d="M37.39,100,41,138.25H53l-.56-1.68a4.46,4.46,0,0,0-4.23-3,3.89,3.89,0,0,1-3.92-4c0-.74.66-18.2,14.35-28.91A173.82,173.82,0,0,1,73.31,90.5C82,85,88.93,80.62,93.73,72.16c0,0,0,0,0,0a4,4,0,0,1,1.51-1.48C113,60.87,134.63,60,149.6,61.06a3.92,3.92,0,0,1-.53,7.82c-11.79-.8-27.91-.4-42.36,5.11,10.77,4,33.15,10.39,68.52,11.28-2.54-6-4.36-10.84-5.31-13.44-1-.22-2.36-.51-4-.82a3.92,3.92,0,1,1,1.43-7.7c4.05.75,6.45,1.38,6.55,1.41a3.91,3.91,0,0,1,2.7,2.51c.19.54,18.81,53.76,42,71h9.52L227,136a4.49,4.49,0,0,0-4-2.51h-1.19a3.91,3.91,0,0,1-3.51-2.16,120.17,120.17,0,0,1-8.75-26.57c-4.21-20.06-3-38.94,3.6-54.72a23.51,23.51,0,0,1-4.18-7.77,3.92,3.92,0,0,1,7.42-2.55C219,47.57,222,47.23,227,46.66a28.89,28.89,0,0,1,4.4-.27c6.22.23,11.86,3,17.67,8.57,2.08-.93,6.49-5.24,10.28-10-1.85-5.53-5.61-16-8.26-20.42-2.56-4.23-4.73-6.38-10.33-8a3.92,3.92,0,0,1-7.42-.28c-1-3.4-3.69-5.8-5.72-7.2a22.92,22.92,0,0,0-2.51,7.7,3.94,3.94,0,0,1-3.89,3.45,3.71,3.71,0,0,1-.47,0,3.92,3.92,0,0,1-3.43-4.35,29.12,29.12,0,0,1,.63-3.31c-7,.49-14.42,3.63-22.2,6.93-10.11,4.3-21.58,9.17-34.16,8.87-3.95-.09-10.72-1-19.3-2.05-20.67-2.63-51.9-6.62-70.81-3-1.92.37-3.75.8-5.52,1.31A19.35,19.35,0,0,0,53.14,42.76v11.7c0,23.13-12,40.66-15.75,45.54Zm43.93,27.29,7.88,11h11.21l-1.56-2.58A4.5,4.5,0,0,0,95,133.52H91.38A3.92,3.92,0,0,1,87.5,129c.06-.34,4.29-27.29,6-43.75-4.65,4.66-10.07,8.11-16,11.87l-.14.1a123.22,123.22,0,0,1,4,30.07Zm74.56-2.38,5.65,13.34h10.1l-1.24-2.34a4.46,4.46,0,0,0-3.95-2.39,3.92,3.92,0,0,1-3.69-5.23l12.54-35.17q-7.62-.2-14.45-.67l-5,32.46ZM3.71,84.41a3.91,3.91,0,0,1,4,3,11.93,11.93,0,0,0,5.49,0c6.87-1.65,8.85-9.13,10.89-19.53.19-1,.39-2,.59-3C30.29,38.12,42.42,23.1,63.66,17c.57-.2,5-1.26,6.29-1.5,20.14-3.86,52.12.22,73.28,2.92,8,1,15,1.9,18.48,2,10.92.23,21.09-4.07,30.92-8.25s18.88-8,28.44-7.59a17.83,17.83,0,0,1,2.78-3.5A3.92,3.92,0,0,1,228.1.31a26.3,26.3,0,0,1,9.41,7.36c10.88,2.18,15.68,5.25,20.24,12.77,4.1,6.79,9.43,23.33,9.65,24a3.88,3.88,0,0,1-.59,3.53c-3.22,4.35-11.41,14.49-17.72,15a4.35,4.35,0,0,1-.51,0,6.19,6.19,0,0,1-4.44-1.81c-4.63-4.63-8.67-6.77-13.09-6.94a23.11,23.11,0,0,0-3.21.23,22.2,22.2,0,0,1-8-.14c-11.79,30,.77,63,4.46,71.45a12.41,12.41,0,0,1,9.7,6.83l3.84,7.87a3.92,3.92,0,0,1-3.53,5.63H217.29a3.92,3.92,0,0,1-2.25-.7c-13.54-9.45-25.32-29.31-33.56-46.31l-9.88,27.73a12.31,12.31,0,0,1,5.73,5.44l4.26,8.1a3.91,3.91,0,0,1-3.47,5.74H158.93a3.93,3.93,0,0,1-3.61-2.39l-7.09-16.76a3.93,3.93,0,0,1-.26-2.12l5-33C127,89.27,110.3,84,101.85,80.56c-1,12.28-4.41,35.38-5.91,45.16a12.39,12.39,0,0,1,9.61,5.89l5.17,8.53a3.92,3.92,0,0,1-3.35,6H87.19A3.94,3.94,0,0,1,84,144.46l-9.77-13.62a3.88,3.88,0,0,1-.74-2.28,118.41,118.41,0,0,0-3.06-26.86c-2.29,1.54-4.62,3.2-7,5.07-7.61,5.94-10.13,14.92-11,19.69a12.29,12.29,0,0,1,7.35,7.63l2.28,6.84a3.92,3.92,0,0,1-3.72,5.16H37.44a3.92,3.92,0,0,1-3.91-3.55l-4.1-43.38a3.92,3.92,0,0,1,.92-2.91c.15-.17,14.95-17.85,14.95-41.8V42.76a27,27,0,0,1,.79-6.51c-6.54,7.06-10.94,17-13.72,30.26-.19.93-.38,1.89-.57,2.86C29.92,79,27.34,92.06,15.05,95a21.36,21.36,0,0,1-4.86.55,12.62,12.62,0,0,1-7.46-2,6.59,6.59,0,0,1-2.72-5,3.91,3.91,0,0,1,3.7-4.12Z" transform="translate(0)"/></svg>