<svg id="Capa_1" data-name="Capa 1" xmlns="http://www.w3.org/2000/svg" viewBox="0 0 267.61 314.54"><defs><style>.cls-1{fill:#e4624c;}.cls-2{fill:#cb3b28;}.cls-3{fill:#ff9377;}.cls-4{fill:#ba602b;}.cls-5{fill:#964c22;}.cls-6{fill:#6f3716;}</style></defs><title>Trofeo-3</title><path class="cls-1" d="M61.26,168.57a28.11,28.11,0,0,1-7.7-1.08,9.2,9.2,0,1,1,5-17.7,9.73,9.73,0,1,0,5.34-18.72C45.81,126,29.43,113.42,17.83,95.68S0,56.34,0,33.49v-.07A33.54,33.54,0,0,1,33.55,0h.12A33.58,33.58,0,0,1,67.11,33.62a9.22,9.22,0,0,1-9.22,9.17h0a9.22,9.22,0,0,1-9.19-9.23,15.12,15.12,0,0,0-30.24-.11v0c0,19,5.27,37.5,14.83,52.13,9.16,14,21.83,23.86,35.69,27.74a28.14,28.14,0,0,1-7.69,55.21Zm0,0" transform="translate(0 0)"/><path class="cls-2" d="M206.35,168.57a28.13,28.13,0,0,1-7.72-55.2c13.88-3.89,26.56-13.75,35.72-27.75,9.56-14.63,14.83-33.15,14.83-52.13v-.07a15.11,15.11,0,0,0-15.13-15H234a15.12,15.12,0,0,0-15.07,15.15,9.2,9.2,0,0,1-9.18,9.23h0a9.21,9.21,0,0,1-9.22-9.17A33.57,33.57,0,0,1,233.94,0h.12a33.54,33.54,0,0,1,33.55,33.38v.11c0,22.85-6.17,44.35-17.84,62.19s-28,30.31-46.13,35.4A9.73,9.73,0,0,0,209,149.79a9.2,9.2,0,1,1,5,17.7,28.11,28.11,0,0,1-7.7,1.08Zm0,0" transform="translate(0 0)"/><path class="cls-3" d="M180.34,259.66H87.26a9.2,9.2,0,0,1-9.21-9.2,55.65,55.65,0,0,1,28.11-48.36V163.62A70.39,70.39,0,0,1,63.28,98.84V9.2A9.2,9.2,0,0,1,72.49,0H195.12a9.2,9.2,0,0,1,9.21,9.2V98.84a70.39,70.39,0,0,1-42.88,64.78V202.1a55.65,55.65,0,0,1,28.11,48.36,9.21,9.21,0,0,1-9.22,9.2Zm0,0" transform="translate(0 0)"/><path class="cls-1" d="M172.86,157.48a70.22,70.22,0,0,0,31.47-58.64V9.2A9.21,9.21,0,0,0,195.12,0H133.8V259.66h46.54a9.21,9.21,0,0,0,9.22-9.2,55.67,55.67,0,0,0-28.11-48.36V163.62a70.05,70.05,0,0,0,11.41-6.14Zm0,0" transform="translate(0 0)"/><path class="cls-1" d="M158.38,191.29H109.23a9.21,9.21,0,1,1,0-18.41h49.15a9.21,9.21,0,1,1,0,18.41Zm0,0" transform="translate(0 0)"/><path class="cls-2" d="M158.38,172.88H133.8v18.41h24.58a9.21,9.21,0,1,0,0-18.41Zm0,0" transform="translate(0 0)"/><path class="cls-4" d="M219.59,314.54H48a9.2,9.2,0,0,1-9.21-9.2V250.46A9.21,9.21,0,0,1,48,241.25H219.59a9.21,9.21,0,0,1,9.21,9.21v54.88a9.2,9.2,0,0,1-9.21,9.2Zm0,0" transform="translate(0 0)"/><path class="cls-5" d="M219.59,241.26H133.8v73.28h85.79a9.2,9.2,0,0,0,9.21-9.2V250.46a9.2,9.2,0,0,0-9.21-9.2Zm0,0" transform="translate(0 0)"/><path class="cls-5" d="M231.87,314.54H35.74a9.2,9.2,0,1,1,0-18.4H231.87a9.2,9.2,0,1,1,0,18.4Zm0,0" transform="translate(0 0)"/><path class="cls-6" d="M231.87,296.14H133.8v18.4h98.07a9.2,9.2,0,1,0,0-18.4Zm0,0" transform="translate(0 0)"/><path class="cls-1" d="M157.74,68.05a23.94,23.94,0,0,0-47.43-4.63A9.22,9.22,0,0,0,128.4,67a5.51,5.51,0,1,1,5.4,6.57,9.21,9.21,0,1,0,0,18.41,5.5,5.5,0,1,1-5.45,6.28,5,5,0,0,1,0-.78,9.22,9.22,0,0,0-18.43,0,23,23,0,0,0,.23,3.32,23.93,23.93,0,1,0,42.56-18,23.82,23.82,0,0,0,5.08-14.7Zm0,0" transform="translate(0 0)"/><path class="cls-2" d="M157.74,68.05A24,24,0,0,0,133.8,44.14V62.55a5.5,5.5,0,1,1,0,11V92a5.5,5.5,0,1,1,0,11v18.4a23.88,23.88,0,0,0,18.86-38.6,23.82,23.82,0,0,0,5.08-14.7Zm0,0" transform="translate(0 0)"/></svg>