<svg id="Capa_1" data-name="Capa 1" xmlns="http://www.w3.org/2000/svg" viewBox="0 0 267.61 314.54"><defs><style>.cls-1{fill:#c4caf3;}.cls-2{fill:#a8b1ec;}.cls-3{fill:#e0e4f8;}.cls-4{fill:#ba602b;}.cls-5{fill:#964c22;}.cls-6{fill:#6f3716;}</style></defs><title>Trofeo-2</title><path class="cls-1" d="M61.26,168.57a28.11,28.11,0,0,1-7.7-1.08,9.2,9.2,0,1,1,5-17.7,9.73,9.73,0,1,0,5.34-18.72C45.81,126,29.43,113.42,17.83,95.68S0,56.34,0,33.49v-.07A33.54,33.54,0,0,1,33.55,0h.12A33.58,33.58,0,0,1,67.11,33.62a9.22,9.22,0,0,1-9.22,9.17h0a9.22,9.22,0,0,1-9.19-9.23,15.12,15.12,0,0,0-30.24-.11v0c0,19,5.27,37.5,14.83,52.13,9.16,14,21.83,23.86,35.69,27.75a28.13,28.13,0,0,1-7.69,55.2Zm0,0" transform="translate(0 0)"/><path class="cls-2" d="M206.35,168.57a28.13,28.13,0,0,1-7.72-55.2c13.88-3.89,26.56-13.75,35.72-27.75,9.56-14.63,14.83-33.15,14.83-52.13v-.07a15.11,15.11,0,0,0-15.12-15H234a15.12,15.12,0,0,0-15.07,15.15,9.2,9.2,0,0,1-9.18,9.23h0a9.2,9.2,0,0,1-9.21-9.17A33.56,33.56,0,0,1,233.94,0h.12a33.54,33.54,0,0,1,33.55,33.39v.1c0,22.85-6.17,44.35-17.84,62.19s-28,30.31-46.13,35.4A9.73,9.73,0,0,0,209,149.79a9.2,9.2,0,1,1,5,17.7,28.11,28.11,0,0,1-7.7,1.08Zm0,0" transform="translate(0 0)"/><path class="cls-3" d="M180.34,259.66H87.26a9.2,9.2,0,0,1-9.21-9.2,55.65,55.65,0,0,1,28.11-48.36V163.63A70.47,70.47,0,0,1,63.28,98.84V9.2A9.2,9.2,0,0,1,72.49,0H195.12a9.2,9.2,0,0,1,9.21,9.2V98.84a70.47,70.47,0,0,1-42.88,64.79V202.1a55.65,55.65,0,0,1,28.11,48.36,9.21,9.21,0,0,1-9.22,9.2Zm0,0" transform="translate(0 0)"/><path class="cls-1" d="M172.86,157.48a70.22,70.22,0,0,0,31.47-58.64V9.2A9.21,9.21,0,0,0,195.12,0H133.8V259.66h46.54a9.21,9.21,0,0,0,9.22-9.2,55.67,55.67,0,0,0-28.11-48.36V163.63a70.88,70.88,0,0,0,11.41-6.15Zm0,0" transform="translate(0 0)"/><path class="cls-1" d="M132.24,121.26c-11.5,0-12.42-.31-13.64-.72a9.56,9.56,0,0,1-6.13-6.22c-1.52-4.94.9-8.1,4.57-12.9,2.91-3.8,8.32-10.88,17.41-23.84A29.31,29.31,0,0,0,139,68.69l.12-1a5.51,5.51,0,0,0-10.89-.63,9.21,9.21,0,0,1-18.08-3.55,23.94,23.94,0,0,1,47.42,4.62,8.82,8.82,0,0,1-.07,1.16l-.29,2.23c0,.3-.09.61-.16.91-1.13,4.87-3.67,10.14-7.54,15.67C145.3,94.19,141.83,99,139,102.81c3.78,0,7.82-.06,11.69-.11a9.21,9.21,0,1,1,.23,18.41c-8.23.1-14.26.15-18.71.15Zm0,0" transform="translate(0 0)"/><path class="cls-1" d="M158.38,191.29H109.23a9.21,9.21,0,1,1,0-18.41h49.15a9.21,9.21,0,1,1,0,18.41Zm0,0" transform="translate(0 0)"/><path class="cls-2" d="M158.38,172.88H133.8v18.41h24.58a9.21,9.21,0,1,0,0-18.41Zm0,0" transform="translate(0 0)"/><path class="cls-2" d="M150.72,102.71c-3.87,0-7.91.08-11.69.1,2.8-3.81,6.27-8.62,10.52-14.68a46.23,46.23,0,0,0,7.54-15.67c.07-.3.12-.61.16-.91l.29-2.22a9.08,9.08,0,0,0,.07-1.17,24,24,0,0,0-23.81-23.9V62.67a5.5,5.5,0,0,1,5.36,5l-.12,1a29.31,29.31,0,0,1-4.59,8.89l-.65.91v42.76c4.27,0,9.84,0,17.15-.14a9.2,9.2,0,1,0-.23-18.4Zm0,0" transform="translate(0 0)"/><path class="cls-4" d="M219.59,314.54H48a9.2,9.2,0,0,1-9.21-9.2V250.46A9.21,9.21,0,0,1,48,241.25H219.59a9.21,9.21,0,0,1,9.21,9.21v54.88a9.2,9.2,0,0,1-9.21,9.2Zm0,0" transform="translate(0 0)"/><path class="cls-5" d="M219.59,241.26H133.8v73.28h85.79a9.2,9.2,0,0,0,9.21-9.2V250.46a9.2,9.2,0,0,0-9.21-9.2Zm0,0" transform="translate(0 0)"/><path class="cls-5" d="M231.87,314.54H35.74a9.2,9.2,0,1,1,0-18.4H231.87a9.2,9.2,0,1,1,0,18.4Zm0,0" transform="translate(0 0)"/><path class="cls-6" d="M231.87,296.14H133.8v18.4h98.07a9.2,9.2,0,1,0,0-18.4Zm0,0" transform="translate(0 0)"/></svg>