<svg id="Capa_1" data-name="Capa 1" xmlns="http://www.w3.org/2000/svg" viewBox="0 0 319.77 319.75"><defs><style>.cls-1{fill:#b2b2b2;}</style></defs><title>Pasos</title><path class="cls-1" d="M313.21,0C250.79-1.09,179.6,31.54,134.54,82.15A169.11,169.11,0,0,0,18.68,131.49a6.67,6.67,0,0,0,3.73,11.34l51.35,7.35-6.34,7.1a6.66,6.66,0,0,0,.27,9.16l85.62,85.63a6.7,6.7,0,0,0,9.16.25l7.1-6.34,7.35,51.35a6.65,6.65,0,0,0,4.72,5.14,6.09,6.09,0,0,0,1.9.3,7.51,7.51,0,0,0,5.16-2.15,168.71,168.71,0,0,0,48.91-115.44C288.28,140,321.17,68.87,319.72,6.53A6.69,6.69,0,0,0,313.21,0Zm-61.4,115a33.31,33.31,0,1,1,0-47.11,33.17,33.17,0,0,1,0,47.11Zm0,0" transform="translate(0)"/><path class="cls-1" d="M36.3,225.22c-14.26,14.26-33.83,78.66-36,86a6.67,6.67,0,0,0,8.3,8.3c7.29-2.18,71.69-21.76,86-36A41.18,41.18,0,1,0,36.3,225.22Zm0,0" transform="translate(0)"/></svg>