<svg id="Capa_1" data-name="Capa 1" xmlns="http://www.w3.org/2000/svg" viewBox="0 0 499.84 424"><title>Aforo-competición</title><path d="M427.7,228.9H389a100.2,100.2,0,0,1,6.11,34.57v146.1A42.89,42.89,0,0,1,392.65,424h63.91a43.34,43.34,0,0,0,43.28-43.29V301.07A72.24,72.24,0,0,0,427.7,228.9Zm0,0"/><path d="M104.74,263.47a101,101,0,0,1,6.06-34.56H72.18A72.24,72.24,0,0,0,0,301.07v79.64A43.35,43.35,0,0,0,43.3,424h63.89a43.63,43.63,0,0,1-2.45-14.43Zm0,0"/><path d="M294.13,191.32H205.76a72.25,72.25,0,0,0-72.18,72.15v146.1A14.45,14.45,0,0,0,148,424H351.84a14.42,14.42,0,0,0,14.42-14.43V263.47a72.23,72.23,0,0,0-72.13-72.15Zm0,0"/><path d="M249.92,0a86.76,86.76,0,1,0,86.77,86.78A86.88,86.88,0,0,0,249.92,0Zm0,0"/><path d="M97.54,80.88a64.86,64.86,0,1,0,64.91,64.9,65,65,0,0,0-64.91-64.9Zm0,0"/><path d="M402.33,80.88a64.9,64.9,0,1,0,64.89,64.9,65,65,0,0,0-64.89-64.9Zm0,0"/></svg>