<svg id="Capa_1" data-name="Capa 1" xmlns="http://www.w3.org/2000/svg" viewBox="0 0 576.97 514"><defs><style>.cls-1{fill:#b2b2b2;}</style></defs><title>Calendario_menu</title><path class="cls-1" d="M517.15,43.59H480.94V15a15,15,0,1,0-30.06,0V43.59H303.59V15a15,15,0,1,0-30.06,0V43.59H124.74V15a15,15,0,0,0-30.06,0V43.59H60c-33.07,0-60,27.8-60,60.86V453.88A60,60,0,0,0,60,514H517a59.94,59.94,0,0,0,60-60V104.45C577.12,71.39,550.22,43.59,517.15,43.59ZM143.53,407.29h-26.3a15,15,0,1,1,0-30.06h26.45a15,15,0,0,1-.15,30.06Zm0-102.2h-26.3a15,15,0,1,1,0-30.06h26.45a15,15,0,0,1-.15,30.06ZM249,407.29h-26.3a15,15,0,1,1,0-30.06H249a15,15,0,1,1,0,30.06Zm0-102.2h-26.3a15,15,0,1,1,0-30.06H249a15,15,0,1,1,0,30.06Zm0-103.7h-26.3a15,15,0,0,1,0-30.06H249a15,15,0,1,1,0,30.06Zm104.61,205.9H327.33a15,15,0,0,1,0-30.06h26.31a15,15,0,1,1,0,30.06Zm0-102.2H327.33a15,15,0,0,1,0-30.06h26.31a15,15,0,1,1,0,30.06Zm0-103.7H327.33a15,15,0,0,1,0-30.06h26.31a15,15,0,1,1,0,30.06Zm105.5,103.7h-26.3a15,15,0,1,1,0-30.06h26.3a15,15,0,1,1,0,30.06Zm0-103.7h-26.3a15,15,0,1,1,0-30.06h26.3a15,15,0,1,1,0,30.06Z"/></svg>