<svg id="Capa_1" data-name="Capa 1" xmlns="http://www.w3.org/2000/svg" viewBox="0 0 427.33 427.33"><title>Calendario-competicioÌn</title><path d="M377.57,33.38h-20V0H324.17V33.38H103.83V0H70.44V33.38h-20A50.13,50.13,0,0,0,.34,83.46V377.25A50.13,50.13,0,0,0,50.4,427.33H377.57a50.14,50.14,0,0,0,50.09-50.08V83.46a50.14,50.14,0,0,0-50.09-50.08Zm16.71,343.87a16.71,16.71,0,0,1-16.71,16.69H50.4a16.71,16.71,0,0,1-16.68-16.69V156.91H394.28Zm0-253.73H33.72V83.46A16.7,16.7,0,0,1,50.4,66.77h20v33.38h33.39V66.77H324.17v33.38h33.39V66.77h20a16.7,16.7,0,0,1,16.71,16.69Zm0,0" transform="translate(-0.34)"/><rect x="63.43" y="191.96" width="33.39" height="33.39"/><rect x="130.2" y="191.96" width="33.37" height="33.39"/><rect x="196.99" y="191.96" width="33.37" height="33.39"/><rect x="263.73" y="191.96" width="33.41" height="33.39"/><rect x="330.51" y="191.96" width="33.39" height="33.39"/><rect x="63.43" y="258.73" width="33.39" height="33.39"/><rect x="130.2" y="258.73" width="33.37" height="33.39"/><rect x="196.99" y="258.73" width="33.37" height="33.39"/><rect x="263.73" y="258.73" width="33.41" height="33.39"/><rect x="63.43" y="325.5" width="33.39" height="33.39"/><rect x="130.2" y="325.5" width="33.37" height="33.39"/><rect x="196.99" y="325.5" width="33.37" height="33.39"/><rect x="263.73" y="325.5" width="33.41" height="33.39"/><rect x="330.51" y="258.73" width="33.39" height="33.39"/></svg>