<svg id="Capa_1" data-name="Capa 1" xmlns="http://www.w3.org/2000/svg" viewBox="0 0 318 424"><title>Candado-competicioÌn</title><path d="M309.17,159h-26.5V123.67a123.67,123.67,0,1,0-247.34,0v8.83a8.83,8.83,0,0,0,8.84,8.83H79.5a8.81,8.81,0,0,0,8.82-8.83v-8.83a70.67,70.67,0,1,1,141.33,0V159H8.83A8.83,8.83,0,0,0,0,167.83V388.67A35.36,35.36,0,0,0,35.33,424H282.67A35.36,35.36,0,0,0,318,388.67V167.83a8.83,8.83,0,0,0-8.83-8.83ZM185.44,343.52a8.82,8.82,0,0,1-8.77,9.81H141.33a8.82,8.82,0,0,1-8.77-9.81l5.56-50.11A35,35,0,0,1,123.65,265a35.34,35.34,0,0,1,70.67,0,35,35,0,0,1-14.44,28.41Zm0,0"/></svg>