<svg id="Capa_1" data-name="Capa 1" xmlns="http://www.w3.org/2000/svg" viewBox="0 0 428 513"><defs><style>.cls-1{fill:#b2b2b2;}</style></defs><title>Personal</title><path class="cls-1" d="M210.76,247.61c34,0,63.35-12.18,87.37-36.2s36.2-53.41,36.2-87.36-12.18-63.33-36.21-87.36S244.71.5,210.76.5,147.42,12.67,123.4,36.69,87.2,90.11,87.2,124.05s12.18,63.35,36.21,87.37S176.82,247.61,210.76,247.61Z" transform="translate(0 -0.5)"/><path class="cls-1" d="M427,395a302.28,302.28,0,0,0-4.16-32.41,255,255,0,0,0-8-32.6,161,161,0,0,0-13.39-30.39,114.6,114.6,0,0,0-20.21-26.33,89.11,89.11,0,0,0-29-18.24,100.49,100.49,0,0,0-37-6.7c-5.23,0-10.29,2.15-20.08,8.52-6,3.92-13.06,8.46-20.92,13.48-6.72,4.29-15.83,8.3-27.07,11.93a105.1,105.1,0,0,1-66.21,0c-11.24-3.63-20.34-7.64-27-11.92-7.79-5-14.83-9.52-20.94-13.5-9.77-6.36-14.84-8.51-20.08-8.51a100.24,100.24,0,0,0-37,6.71,89.18,89.18,0,0,0-29,18.23,115,115,0,0,0-20.19,26.33A161.16,161.16,0,0,0,13.15,330a254.39,254.39,0,0,0-8,32.59A306.3,306.3,0,0,0,1,395c-.68,9.82-1,20-1,30.3,0,26.77,8.51,48.45,25.3,64.44C41.88,505.5,63.82,513.5,90.49,513.5h247c26.67,0,48.61-8,65.19-23.78,16.79-16,25.3-37.66,25.3-64.45C428,414.94,427.65,404.74,427,395Z" transform="translate(0 -0.5)"/></svg>