<svg id="Capa_1" data-name="Capa 1" xmlns="http://www.w3.org/2000/svg" viewBox="0 0 334 392.6"><title>Premios-competición</title><path d="M321.63,13.05A41.64,41.64,0,0,0,292.12.9H292a41.93,41.93,0,0,0-37,22.46v-11A11.49,11.49,0,0,0,243.52.9h-153A11.49,11.49,0,0,0,79,12.39v11A41.94,41.94,0,0,0,42,.9h-.17A41.84,41.84,0,0,0,0,42.61v.09c0,28.51,7.69,55.36,22.24,77.62s34.92,37.84,57.54,44.18a12.14,12.14,0,1,1-6.64,23.36A11.49,11.49,0,1,0,66.84,210a34.78,34.78,0,0,0,9.61,1.35,35.29,35.29,0,0,0,32.27-21.15,87.52,87.52,0,0,0,23.76,15v12.23a11.46,11.46,0,0,0,0,21.63v14.16A69.5,69.5,0,0,0,98.36,302H59.92a11.5,11.5,0,0,0-11.5,11.49v57H44.58a11.49,11.49,0,1,0,0,23H289.4a11.49,11.49,0,1,0,0-23h-3.83v-57A11.51,11.51,0,0,0,274.06,302H235.64a69.55,69.55,0,0,0-34.14-48.87V239a11.47,11.47,0,0,0,0-21.64V205.13a87.39,87.39,0,0,0,23.77-15,35.24,35.24,0,0,0,32.28,21.15,34.83,34.83,0,0,0,9.61-1.35,11.49,11.49,0,1,0-6.31-22.09,12.14,12.14,0,0,1-6.69-23.35c22.66-6.35,43.11-22,57.59-44.19S334,71.21,334,42.7v-.13A41.49,41.49,0,0,0,321.63,13.05ZM41.51,107.76C29.57,89.51,23,66.4,23,42.7v-.05a18.88,18.88,0,0,1,37.75.13A11.49,11.49,0,0,0,72.19,54.31h0A11.44,11.44,0,0,0,79,52.13v72.14a87.86,87.86,0,0,0,1.51,16.27C65.38,134.8,51.7,123.35,41.51,107.76ZM311,42.7c0,23.7-6.58,46.81-18.53,65.06-10.17,15.58-23.84,27-39,32.78A87.86,87.86,0,0,0,255,124.27V52.14a11.47,11.47,0,0,0,6.72,2.17h0a11.49,11.49,0,0,0,11.47-11.53,18.89,18.89,0,0,1,18.81-18.91h.07A18.88,18.88,0,0,1,311,42.61Z" transform="translate(0 -0.9)"/></svg>